HIERARCHY
ROOT Hips
{
	OFFSET 0.000000 0.000000 0.000000
	CHANNELS 6 Xposition Yposition Zposition Xrotation Yrotation Zrotation
	JOINT LeftUpLeg_virtual
	{
		OFFSET 0.000000 0.000000 0.000000
		CHANNELS 3 Xrotation Yrotation Zrotation
		JOINT LeftUpLeg
		{
			OFFSET 10.205400 -3.823500 0.155100
			CHANNELS 3 Xrotation Yrotation Zrotation
			JOINT LeftLeg
			{
				OFFSET 0.708757 -12.982077 0.567790
				CHANNELS 3 Xrotation Yrotation Zrotation
				JOINT LeftFoot
				{
					OFFSET -0.708756 -10.717838 -2.184338
					CHANNELS 3 Xrotation Yrotation Zrotation
					JOINT LeftToeBase
					{
						OFFSET 0.108149 -7.191104 7.560241
						CHANNELS 3 Xrotation Yrotation Zrotation
						JOINT LeftToe_End
						{
							OFFSET 0.070230 0.081724 4.490308
							CHANNELS 3 Xrotation Yrotation Zrotation
							End Site
							{
								OFFSET 0 0 0
							}
						}
					}
				}
			}
		}
	}
	JOINT RightUpLeg_virtual
	{
		OFFSET 0.000000 0.000000 0.000000
		CHANNELS 3 Xrotation Yrotation Zrotation
		JOINT RightUpLeg
		{
			OFFSET -10.205400 -3.823500 0.005500
			CHANNELS 3 Xrotation Yrotation Zrotation
			JOINT RightLeg
			{
				OFFSET -0.708756 -12.982134 0.610632
				CHANNELS 3 Xrotation Yrotation Zrotation
				JOINT RightFoot
				{
					OFFSET 0.708754 -10.717769 -1.945823
					CHANNELS 3 Xrotation Yrotation Zrotation
					JOINT RightToeBase
					{
						OFFSET -0.108140 -7.191069 7.372968
						CHANNELS 3 Xrotation Yrotation Zrotation
						JOINT RightToe_End
						{
							OFFSET -0.070227 0.081735 4.479403
							CHANNELS 3 Xrotation Yrotation Zrotation
							End Site
							{
								OFFSET 0 0 0
							}
						}
					}
				}
			}
		}
	}
	JOINT Spine_virtual
	{
		OFFSET 0.000000 0.000000 0.000000
		CHANNELS 3 Xrotation Yrotation Zrotation
		JOINT Spine
		{
			OFFSET 0.000000 6.876099 0.125700
			CHANNELS 3 Xrotation Yrotation Zrotation
			JOINT Spine1
			{
				OFFSET 0.000000 5.730043 0.104720
				CHANNELS 3 Xrotation Yrotation Zrotation
				JOINT Spine1_split
				{
					OFFSET 0.000000 5.730043 0.104720
					CHANNELS 3 Xrotation Yrotation Zrotation
					JOINT Spine2
					{
						OFFSET 0.000000 5.730043 0.104720
						CHANNELS 3 Xrotation Yrotation Zrotation
						JOINT Neck_virtual
						{
							OFFSET 0.000000 0.000000 0.000000
							CHANNELS 3 Xrotation Yrotation Zrotation
							JOINT Neck
							{
								OFFSET 0.000000 10.314075 0.188496
								CHANNELS 3 Xrotation Yrotation Zrotation
								JOINT Head
								{
									OFFSET 0.000000 7.643700 -2.377400
									CHANNELS 3 Xrotation Yrotation Zrotation
									JOINT HeadTop_End
									{
										OFFSET 0.000000 43.788605 -13.619600
										CHANNELS 3 Xrotation Yrotation Zrotation
										End Site
										{
											OFFSET 0 0 0
										}
									}
								}
							}
						}
						JOINT LeftShoulder_virtual
						{
							OFFSET 0.000000 0.000000 0.000000
							CHANNELS 3 Xrotation Yrotation Zrotation
							JOINT LeftShoulder
							{
								OFFSET 2.196100 4.412489 0.087492
								CHANNELS 3 Xrotation Yrotation Zrotation
								JOINT LeftShoulder_split
								{
									OFFSET 2.196100 4.412489 0.087492
									CHANNELS 3 Xrotation Yrotation Zrotation
									JOINT LeftArm
									{
										OFFSET 8.771219 -2.981674 -0.026999
										CHANNELS 3 Xrotation Yrotation Zrotation
										JOINT LeftForeArm
										{
											OFFSET 8.512804 0.000000 -0.000000
											CHANNELS 3 Xrotation Yrotation Zrotation
											JOINT LeftHand
											{
												OFFSET 18.484802 0.000000 -0.000000
												CHANNELS 3 Xrotation Yrotation Zrotation
												End Site
												{
													OFFSET 0 0 0
												}
											}
										}
									}
								}
							}
						}
						JOINT RightShoulder_virtual
						{
							OFFSET 0.000000 0.000000 0.000000
							CHANNELS 3 Xrotation Yrotation Zrotation
							JOINT RightShoulder
							{
								OFFSET -2.196100 4.412496 0.070690
								CHANNELS 3 Xrotation Yrotation Zrotation
								JOINT RightShoulder_split
								{
									OFFSET -2.196100 4.412496 0.070690
									CHANNELS 3 Xrotation Yrotation Zrotation
									JOINT RightArm
									{
										OFFSET -8.771282 -2.981682 -0.094208
										CHANNELS 3 Xrotation Yrotation Zrotation
										JOINT RightForeArm
										{
											OFFSET -8.494598 0.000000 0.000000
											CHANNELS 3 Xrotation Yrotation Zrotation
											JOINT RightHand
											{
												OFFSET -18.483803 0.000000 0.000001
												CHANNELS 3 Xrotation Yrotation Zrotation
												End Site
												{
													OFFSET 0 0 0
												}
											}
										}
									}
								}
							}
						}
					}
				}
			}
		}
	}
}
MOTION
Frames: 4
Frame Time: 0.03333333
0.361173 32.064850 5.293149 0.000000 0.000000 0.000000 174.382297 -46.551629 171.400838 -9.548041 23.701918 27.681561 33.107368 2.615991 -0.343651 -26.512376 17.722989 -25.663039 0.327888 -4.649341 -4.426466 0.000000 0.000000 0.000000 174.839469 -48.332048 171.399035 -24.988449 -11.817682 -9.934719 35.712942 -11.557937 2.956923 -16.788627 -13.981564 23.228563 1.032543 2.389090 -4.514495 0.000000 0.000000 0.000000 176.029083 -53.664376 172.818293 4.768306 2.017372 2.893512 -0.597032 0.352786 1.780182 0.250542 -0.531560 0.002715 0.000000 0.000000 0.000000 4.875040 1.599038 2.950526 -4.876379 15.215187 6.842026 -11.294758 7.875497 -0.895052 0.000000 0.000000 0.000000 3.846910 -0.376505 2.984753 1.193633 3.749276 -3.248932 -3.380186 -7.369721 0.549729 -19.701411 5.405182 -64.063158 19.674852 -13.355510 1.005935 0.000000 0.000000 0.000000 0.817081 -0.662728 4.412501 -3.496065 0.470818 19.388136 -16.662807 -9.698627 -5.177542 7.277500 31.209395 48.843567 7.968952 27.751021 -4.592968 0.000000 0.000000 0.000000 
0.580076 31.884476 4.116566 0.000000 0.000000 0.000000 175.243325 -44.969754 172.485253 -8.130843 24.442781 29.097883 35.296403 3.408364 -0.368208 -24.547007 17.144039 -28.349528 -3.466791 -4.859889 -4.688270 0.000000 0.000000 0.000000 175.644475 -46.627075 172.440625 -26.541758 -10.622477 -8.266901 36.984631 -11.949516 2.263965 -14.941011 -13.791381 23.960425 0.686926 2.288496 -5.041361 0.000000 0.000000 0.000000 177.053516 -51.889852 174.556044 4.870835 0.807912 2.980375 -1.009761 -0.013609 2.086412 0.174403 -0.392018 -0.008639 0.000000 0.000000 0.000000 4.932536 1.340217 3.063665 -5.114922 14.694046 6.010852 -10.500448 8.830084 -0.903809 0.000000 0.000000 0.000000 3.728989 -0.656313 3.379818 0.947812 3.250168 -3.993099 -3.367275 -6.792449 0.289291 -17.259642 3.730971 -64.991190 17.833180 -12.515686 0.280386 0.000000 0.000000 0.000000 0.610465 -1.007965 4.629685 -3.820009 0.458063 19.616168 -15.115337 -9.811494 -4.893562 5.291886 31.989157 49.434034 6.365165 27.534588 -4.701581 0.000000 0.000000 0.000000 
0.746740 31.673391 2.824449 0.000000 0.000000 0.000000 176.618351 -43.977559 173.776350 -6.797354 23.859789 30.587821 37.849988 3.840139 -0.392201 -22.256569 16.010472 -30.238139 -9.592151 -4.730224 -5.404130 0.000000 0.000000 0.000000 176.796305 -45.448663 173.420033 -27.248666 -9.751115 -5.976135 37.943968 -11.903510 1.401945 -14.402516 -13.389052 23.845973 0.937573 2.204496 -5.939138 0.000000 0.000000 0.000000 178.288182 -50.321890 176.088151 5.144593 -0.183937 3.233670 -1.399191 -0.348005 2.340632 0.125662 -0.264290 -0.030309 0.000000 0.000000 0.000000 5.004426 1.128677 3.112308 -5.524152 14.349012 5.392308 -9.944463 10.015216 -0.960812 0.000000 0.000000 0.000000 3.627120 -0.903824 3.658712 0.684160 2.627956 -4.173071 -3.096223 -6.365652 0.040329 -14.640133 1.842742 -66.015930 15.820834 -12.023913 -0.699346 0.000000 0.000000 0.000000 0.425525 -1.323281 4.693344 -4.021152 0.788067 19.651803 -13.256998 -9.988897 -4.282469 3.397913 32.728829 50.034489 4.924806 27.395950 -4.735753 0.000000 0.000000 0.000000 
0.818043 31.455561 1.397233 0.000000 0.000000 0.000000 178.378873 -43.073229 175.199502 -5.815380 22.081035 31.894733 40.219753 4.273293 -0.647391 -20.463805 14.631051 -30.731483 -17.369989 -4.084850 -6.672312 0.000000 0.000000 0.000000 178.244305 -44.758691 174.368842 -26.925603 -9.379912 -3.066871 38.705497 -11.718258 0.309820 -16.366132 -13.060765 21.704393 3.111367 2.040984 -7.154220 0.000000 0.000000 0.000000 179.737234 -48.880522 177.450555 5.630071 -0.781734 3.690833 -1.715721 -0.562297 2.462209 0.066048 -0.204349 0.004493 0.000000 0.000000 0.000000 5.085030 1.027102 3.057344 -5.967518 14.207365 5.069810 -9.902186 11.074755 -1.030571 0.000000 0.000000 0.000000 3.521269 -1.047398 3.717266 0.421563 1.968395 -3.841621 -2.460655 -5.824711 -0.146029 -12.307484 0.612445 -67.138007 13.772938 -12.188922 -1.801797 0.000000 0.000000 0.000000 0.272657 -1.515811 4.560610 -4.146534 1.645289 19.613114 -11.193423 -9.938917 -3.673664 1.650181 33.227409 50.724612 3.765597 27.451319 -4.705437 0.000000 0.000000 0.000000 
